<mxfile host="app.diagrams.net" modified="2022-04-23T09:21:27.955Z" agent="5.0 (Windows NT 10.0; Win64; x64) AppleWebKit/537.36 (KHTML, like Gecko) Chrome/100.0.4896.127 Safari/537.36" etag="v-LscIUHobgv6OuHrmxj" version="17.4.6" type="github">
  <diagram id="dH6uez5VSBoFZ5beOO2y" name="第 1 页">
    <mxGraphModel dx="2048" dy="634" grid="0" gridSize="10" guides="1" tooltips="1" connect="1" arrows="1" fold="1" page="1" pageScale="1" pageWidth="827" pageHeight="1169" math="0" shadow="0">
      <root>
        <mxCell id="0" />
        <mxCell id="1" parent="0" />
        <mxCell id="_J9scsHsa_5ye_fnWQHI-14" value="&lt;b&gt;str1=&quot;abcabck&quot;&lt;/b&gt;" style="text;html=1;strokeColor=none;fillColor=none;align=center;verticalAlign=middle;whiteSpace=wrap;rounded=0;" vertex="1" parent="1">
          <mxGeometry x="-53" y="149" width="108" height="39" as="geometry" />
        </mxCell>
        <mxCell id="_J9scsHsa_5ye_fnWQHI-15" value="&lt;b&gt;str2=&quot;bck&quot;&lt;/b&gt;" style="text;html=1;strokeColor=none;fillColor=none;align=center;verticalAlign=middle;whiteSpace=wrap;rounded=0;" vertex="1" parent="1">
          <mxGeometry x="-44" y="240" width="60" height="30" as="geometry" />
        </mxCell>
        <mxCell id="_J9scsHsa_5ye_fnWQHI-16" value="" style="group" vertex="1" connectable="0" parent="1">
          <mxGeometry x="71" y="147" width="315" height="38" as="geometry" />
        </mxCell>
        <mxCell id="_J9scsHsa_5ye_fnWQHI-1" value="0" style="rounded=0;whiteSpace=wrap;html=1;fillColor=#ffe6cc;strokeColor=#d79b00;" vertex="1" parent="_J9scsHsa_5ye_fnWQHI-16">
          <mxGeometry width="45" height="38" as="geometry" />
        </mxCell>
        <mxCell id="_J9scsHsa_5ye_fnWQHI-2" value="1" style="rounded=0;whiteSpace=wrap;html=1;fillColor=#f8cecc;strokeColor=#b85450;" vertex="1" parent="_J9scsHsa_5ye_fnWQHI-16">
          <mxGeometry x="45" width="45" height="38" as="geometry" />
        </mxCell>
        <mxCell id="_J9scsHsa_5ye_fnWQHI-3" value="2" style="rounded=0;whiteSpace=wrap;html=1;fillColor=#e1d5e7;strokeColor=#9673a6;" vertex="1" parent="_J9scsHsa_5ye_fnWQHI-16">
          <mxGeometry x="90" width="45" height="38" as="geometry" />
        </mxCell>
        <mxCell id="_J9scsHsa_5ye_fnWQHI-4" value="3" style="rounded=0;whiteSpace=wrap;html=1;fillColor=#ffe6cc;strokeColor=#d79b00;" vertex="1" parent="_J9scsHsa_5ye_fnWQHI-16">
          <mxGeometry x="135" width="45" height="38" as="geometry" />
        </mxCell>
        <mxCell id="_J9scsHsa_5ye_fnWQHI-8" value="4" style="rounded=0;whiteSpace=wrap;html=1;fillColor=#f8cecc;strokeColor=#b85450;" vertex="1" parent="_J9scsHsa_5ye_fnWQHI-16">
          <mxGeometry x="180" width="45" height="38" as="geometry" />
        </mxCell>
        <mxCell id="_J9scsHsa_5ye_fnWQHI-9" value="5" style="rounded=0;whiteSpace=wrap;html=1;fillColor=#e1d5e7;strokeColor=#9673a6;" vertex="1" parent="_J9scsHsa_5ye_fnWQHI-16">
          <mxGeometry x="225" width="45" height="38" as="geometry" />
        </mxCell>
        <mxCell id="_J9scsHsa_5ye_fnWQHI-10" value="6" style="rounded=0;whiteSpace=wrap;html=1;fillColor=#d5e8d4;strokeColor=#82b366;" vertex="1" parent="_J9scsHsa_5ye_fnWQHI-16">
          <mxGeometry x="270" width="45" height="38" as="geometry" />
        </mxCell>
        <mxCell id="_J9scsHsa_5ye_fnWQHI-17" value="" style="group" vertex="1" connectable="0" parent="1">
          <mxGeometry x="71" y="232" width="135" height="38" as="geometry" />
        </mxCell>
        <mxCell id="_J9scsHsa_5ye_fnWQHI-11" value="0" style="rounded=0;whiteSpace=wrap;html=1;fillColor=#f8cecc;strokeColor=#b85450;" vertex="1" parent="_J9scsHsa_5ye_fnWQHI-17">
          <mxGeometry width="45" height="38" as="geometry" />
        </mxCell>
        <mxCell id="_J9scsHsa_5ye_fnWQHI-12" value="1" style="rounded=0;whiteSpace=wrap;html=1;fillColor=#e1d5e7;strokeColor=#9673a6;" vertex="1" parent="_J9scsHsa_5ye_fnWQHI-17">
          <mxGeometry x="45" width="45" height="38" as="geometry" />
        </mxCell>
        <mxCell id="_J9scsHsa_5ye_fnWQHI-13" value="3" style="rounded=0;whiteSpace=wrap;html=1;fillColor=#d5e8d4;strokeColor=#82b366;" vertex="1" parent="_J9scsHsa_5ye_fnWQHI-17">
          <mxGeometry x="90" width="45" height="38" as="geometry" />
        </mxCell>
        <mxCell id="_J9scsHsa_5ye_fnWQHI-18" value="&lt;b&gt;x-&amp;gt;&lt;/b&gt;" style="text;html=1;strokeColor=none;fillColor=none;align=center;verticalAlign=middle;whiteSpace=wrap;rounded=0;" vertex="1" parent="1">
          <mxGeometry x="71" y="105" width="60" height="30" as="geometry" />
        </mxCell>
        <mxCell id="_J9scsHsa_5ye_fnWQHI-19" value="&lt;b&gt;y-&amp;gt;&lt;/b&gt;" style="text;html=1;strokeColor=none;fillColor=none;align=center;verticalAlign=middle;whiteSpace=wrap;rounded=0;" vertex="1" parent="1">
          <mxGeometry x="59" y="276" width="60" height="30" as="geometry" />
        </mxCell>
        <mxCell id="_J9scsHsa_5ye_fnWQHI-20" value="&lt;b&gt;我们用y表示字符串str2此时比对的字符位置，而x就是y对应的在字符串str2比对的字符&lt;/b&gt;" style="text;html=1;strokeColor=none;fillColor=none;align=left;verticalAlign=middle;whiteSpace=wrap;rounded=0;" vertex="1" parent="1">
          <mxGeometry x="495" y="90" width="276" height="68" as="geometry" />
        </mxCell>
        <mxCell id="_J9scsHsa_5ye_fnWQHI-22" value="流程：&lt;br&gt;x=0,&lt;span style=&quot;white-space: pre&quot;&gt;	&lt;/span&gt;y=0,&lt;span style=&quot;white-space: pre&quot;&gt;	&lt;/span&gt;str1[x] != str2[y]，则x++&lt;br&gt;str1[x] == str2[y]， 则x++, y++&lt;br&gt;str1[x] == str2[y]， 则x++, y++&lt;br&gt;str1[x] != str2[y] ，" style="text;html=1;strokeColor=none;fillColor=none;align=left;verticalAlign=middle;whiteSpace=wrap;rounded=0;" vertex="1" parent="1">
          <mxGeometry x="334" y="228" width="491" height="113" as="geometry" />
        </mxCell>
        <mxCell id="_J9scsHsa_5ye_fnWQHI-23" value="" style="rounded=0;whiteSpace=wrap;html=1;" vertex="1" parent="1">
          <mxGeometry x="40" y="465" width="45" height="38" as="geometry" />
        </mxCell>
        <mxCell id="_J9scsHsa_5ye_fnWQHI-24" value="" style="rounded=0;whiteSpace=wrap;html=1;" vertex="1" parent="1">
          <mxGeometry x="82" y="465" width="45" height="38" as="geometry" />
        </mxCell>
        <mxCell id="_J9scsHsa_5ye_fnWQHI-26" value="" style="rounded=0;whiteSpace=wrap;html=1;" vertex="1" parent="1">
          <mxGeometry x="127" y="465" width="45" height="38" as="geometry" />
        </mxCell>
        <mxCell id="_J9scsHsa_5ye_fnWQHI-57" style="edgeStyle=orthogonalEdgeStyle;rounded=0;orthogonalLoop=1;jettySize=auto;html=1;entryX=0.5;entryY=0;entryDx=0;entryDy=0;startArrow=classic;startFill=1;" edge="1" parent="1" source="_J9scsHsa_5ye_fnWQHI-27" target="_J9scsHsa_5ye_fnWQHI-46">
          <mxGeometry relative="1" as="geometry" />
        </mxCell>
        <mxCell id="_J9scsHsa_5ye_fnWQHI-27" value="" style="rounded=0;whiteSpace=wrap;html=1;fillColor=#60a917;strokeColor=#2D7600;fontColor=#ffffff;" vertex="1" parent="1">
          <mxGeometry x="172" y="465" width="45" height="38" as="geometry" />
        </mxCell>
        <mxCell id="_J9scsHsa_5ye_fnWQHI-28" value="" style="rounded=0;whiteSpace=wrap;html=1;fillColor=#1ba1e2;strokeColor=#006EAF;fontColor=#ffffff;" vertex="1" parent="1">
          <mxGeometry x="214" y="465" width="45" height="38" as="geometry" />
        </mxCell>
        <mxCell id="_J9scsHsa_5ye_fnWQHI-29" value="" style="rounded=0;whiteSpace=wrap;html=1;fillColor=#d80073;strokeColor=#A50040;fontColor=#ffffff;" vertex="1" parent="1">
          <mxGeometry x="259" y="465" width="45" height="38" as="geometry" />
        </mxCell>
        <mxCell id="_J9scsHsa_5ye_fnWQHI-34" value="" style="rounded=0;whiteSpace=wrap;html=1;" vertex="1" parent="1">
          <mxGeometry x="304" y="465" width="45" height="38" as="geometry" />
        </mxCell>
        <mxCell id="_J9scsHsa_5ye_fnWQHI-35" value="" style="rounded=0;whiteSpace=wrap;html=1;" vertex="1" parent="1">
          <mxGeometry x="346" y="465" width="45" height="38" as="geometry" />
        </mxCell>
        <mxCell id="_J9scsHsa_5ye_fnWQHI-36" value="" style="rounded=0;whiteSpace=wrap;html=1;fillColor=#60a917;fontColor=#ffffff;strokeColor=#2D7600;" vertex="1" parent="1">
          <mxGeometry x="391" y="465" width="45" height="38" as="geometry" />
        </mxCell>
        <mxCell id="_J9scsHsa_5ye_fnWQHI-37" value="" style="rounded=0;whiteSpace=wrap;html=1;fillColor=#1ba1e2;fontColor=#ffffff;strokeColor=#006EAF;" vertex="1" parent="1">
          <mxGeometry x="436" y="465" width="45" height="38" as="geometry" />
        </mxCell>
        <mxCell id="_J9scsHsa_5ye_fnWQHI-38" value="" style="rounded=0;whiteSpace=wrap;html=1;fillColor=#d80073;fontColor=#ffffff;strokeColor=#A50040;" vertex="1" parent="1">
          <mxGeometry x="478" y="465" width="45" height="38" as="geometry" />
        </mxCell>
        <mxCell id="_J9scsHsa_5ye_fnWQHI-56" style="edgeStyle=orthogonalEdgeStyle;rounded=0;orthogonalLoop=1;jettySize=auto;html=1;entryX=0.5;entryY=0;entryDx=0;entryDy=0;startArrow=classic;startFill=1;" edge="1" parent="1" source="_J9scsHsa_5ye_fnWQHI-39" target="_J9scsHsa_5ye_fnWQHI-54">
          <mxGeometry relative="1" as="geometry" />
        </mxCell>
        <mxCell id="_J9scsHsa_5ye_fnWQHI-39" value="" style="rounded=0;whiteSpace=wrap;html=1;fillColor=#e3c800;fontColor=#000000;strokeColor=#B09500;" vertex="1" parent="1">
          <mxGeometry x="523" y="465" width="45" height="38" as="geometry" />
        </mxCell>
        <mxCell id="_J9scsHsa_5ye_fnWQHI-40" value="" style="rounded=0;whiteSpace=wrap;html=1;" vertex="1" parent="1">
          <mxGeometry x="568" y="465" width="45" height="38" as="geometry" />
        </mxCell>
        <mxCell id="_J9scsHsa_5ye_fnWQHI-41" value="" style="rounded=0;whiteSpace=wrap;html=1;" vertex="1" parent="1">
          <mxGeometry x="610" y="465" width="45" height="38" as="geometry" />
        </mxCell>
        <mxCell id="_J9scsHsa_5ye_fnWQHI-42" value="" style="rounded=0;whiteSpace=wrap;html=1;" vertex="1" parent="1">
          <mxGeometry x="655" y="465" width="45" height="38" as="geometry" />
        </mxCell>
        <mxCell id="_J9scsHsa_5ye_fnWQHI-46" value="" style="rounded=0;whiteSpace=wrap;html=1;fillColor=#60a917;strokeColor=#2D7600;fontColor=#ffffff;" vertex="1" parent="1">
          <mxGeometry x="172" y="553" width="45" height="38" as="geometry" />
        </mxCell>
        <mxCell id="_J9scsHsa_5ye_fnWQHI-47" value="" style="rounded=0;whiteSpace=wrap;html=1;fillColor=#1ba1e2;strokeColor=#006EAF;fontColor=#ffffff;" vertex="1" parent="1">
          <mxGeometry x="214" y="553" width="45" height="38" as="geometry" />
        </mxCell>
        <mxCell id="_J9scsHsa_5ye_fnWQHI-48" value="" style="rounded=0;whiteSpace=wrap;html=1;fillColor=#d80073;strokeColor=#A50040;fontColor=#ffffff;" vertex="1" parent="1">
          <mxGeometry x="259" y="553" width="45" height="38" as="geometry" />
        </mxCell>
        <mxCell id="_J9scsHsa_5ye_fnWQHI-49" value="" style="rounded=0;whiteSpace=wrap;html=1;" vertex="1" parent="1">
          <mxGeometry x="304" y="553" width="45" height="38" as="geometry" />
        </mxCell>
        <mxCell id="_J9scsHsa_5ye_fnWQHI-50" value="" style="rounded=0;whiteSpace=wrap;html=1;" vertex="1" parent="1">
          <mxGeometry x="346" y="553" width="45" height="38" as="geometry" />
        </mxCell>
        <mxCell id="_J9scsHsa_5ye_fnWQHI-51" value="" style="rounded=0;whiteSpace=wrap;html=1;fillColor=#60a917;fontColor=#ffffff;strokeColor=#2D7600;" vertex="1" parent="1">
          <mxGeometry x="391" y="553" width="45" height="38" as="geometry" />
        </mxCell>
        <mxCell id="_J9scsHsa_5ye_fnWQHI-52" value="" style="rounded=0;whiteSpace=wrap;html=1;fillColor=#1ba1e2;fontColor=#ffffff;strokeColor=#006EAF;" vertex="1" parent="1">
          <mxGeometry x="436" y="553" width="45" height="38" as="geometry" />
        </mxCell>
        <mxCell id="_J9scsHsa_5ye_fnWQHI-53" value="" style="rounded=0;whiteSpace=wrap;html=1;fillColor=#d80073;fontColor=#ffffff;strokeColor=#A50040;" vertex="1" parent="1">
          <mxGeometry x="478" y="553" width="45" height="38" as="geometry" />
        </mxCell>
        <mxCell id="_J9scsHsa_5ye_fnWQHI-54" value="" style="rounded=0;whiteSpace=wrap;html=1;fillColor=#fa6800;fontColor=#000000;strokeColor=#C73500;" vertex="1" parent="1">
          <mxGeometry x="523" y="553" width="45" height="38" as="geometry" />
        </mxCell>
        <mxCell id="_J9scsHsa_5ye_fnWQHI-55" value="" style="rounded=0;whiteSpace=wrap;html=1;" vertex="1" parent="1">
          <mxGeometry x="568" y="553" width="45" height="38" as="geometry" />
        </mxCell>
        <mxCell id="_J9scsHsa_5ye_fnWQHI-58" value="3" style="text;html=1;strokeColor=none;fillColor=none;align=center;verticalAlign=middle;whiteSpace=wrap;rounded=0;" vertex="1" parent="1">
          <mxGeometry x="165" y="425" width="60" height="30" as="geometry" />
        </mxCell>
        <mxCell id="_J9scsHsa_5ye_fnWQHI-59" value="11" style="text;html=1;strokeColor=none;fillColor=none;align=center;verticalAlign=middle;whiteSpace=wrap;rounded=0;" vertex="1" parent="1">
          <mxGeometry x="518" y="425" width="60" height="30" as="geometry" />
        </mxCell>
        <mxCell id="_J9scsHsa_5ye_fnWQHI-60" value="0" style="text;html=1;strokeColor=none;fillColor=none;align=center;verticalAlign=middle;whiteSpace=wrap;rounded=0;" vertex="1" parent="1">
          <mxGeometry x="165" y="609" width="60" height="30" as="geometry" />
        </mxCell>
        <mxCell id="_J9scsHsa_5ye_fnWQHI-61" value="8" style="text;html=1;strokeColor=none;fillColor=none;align=center;verticalAlign=middle;whiteSpace=wrap;rounded=0;" vertex="1" parent="1">
          <mxGeometry x="518" y="609" width="60" height="30" as="geometry" />
        </mxCell>
        <mxCell id="_J9scsHsa_5ye_fnWQHI-62" value="str1" style="text;html=1;strokeColor=none;fillColor=none;align=center;verticalAlign=middle;whiteSpace=wrap;rounded=0;" vertex="1" parent="1">
          <mxGeometry x="-33" y="469" width="60" height="30" as="geometry" />
        </mxCell>
        <mxCell id="_J9scsHsa_5ye_fnWQHI-63" value="str2" style="text;html=1;strokeColor=none;fillColor=none;align=center;verticalAlign=middle;whiteSpace=wrap;rounded=0;" vertex="1" parent="1">
          <mxGeometry x="-33" y="567" width="60" height="30" as="geometry" />
        </mxCell>
        <mxCell id="_J9scsHsa_5ye_fnWQHI-64" value="我们从字符串str1的3位置开始一路的比对，当str1比对到11位置时发现和str2此时对应比对的字符不相等，那么我们有没有必要说我们从str1的4位置重新开始跟str2的0位置进行一路的比对呢？？?&lt;br&gt;&lt;br&gt;next[8] = 3 并且从图中我们也可以看出来在str1中 8-10位置的字符是和str2 0-2位置的字符是相等的，所以在str1中我们只要从8位置开始继续比对即可，也即我们进一步观察在str1中11位置的字符是否和str23位置的字符是否相等然后比对下去。&lt;br&gt;&lt;br&gt;而且在str1中，从3位置开始我们已经发现当比对到11位置字符时已经不相等了，那么我们在str1中从4、5、6、7、位置开始都不可能完整比对出str2来，假设能的话，&lt;br&gt;&lt;br&gt;&lt;br&gt;" style="text;html=1;strokeColor=none;fillColor=none;align=left;verticalAlign=middle;whiteSpace=wrap;rounded=0;" vertex="1" parent="1">
          <mxGeometry x="40" y="681" width="536" height="108" as="geometry" />
        </mxCell>
        <mxCell id="_J9scsHsa_5ye_fnWQHI-65" value="8" style="text;html=1;strokeColor=none;fillColor=none;align=center;verticalAlign=middle;whiteSpace=wrap;rounded=0;" vertex="1" parent="1">
          <mxGeometry x="384" y="425" width="60" height="30" as="geometry" />
        </mxCell>
        <mxCell id="_J9scsHsa_5ye_fnWQHI-66" value="3" style="text;html=1;strokeColor=none;fillColor=none;align=center;verticalAlign=middle;whiteSpace=wrap;rounded=0;" vertex="1" parent="1">
          <mxGeometry x="296.5" y="515" width="60" height="30" as="geometry" />
        </mxCell>
        <mxCell id="_J9scsHsa_5ye_fnWQHI-67" value="" style="rounded=0;whiteSpace=wrap;html=1;" vertex="1" parent="1">
          <mxGeometry x="86" y="886" width="45" height="38" as="geometry" />
        </mxCell>
        <mxCell id="_J9scsHsa_5ye_fnWQHI-68" value="" style="rounded=0;whiteSpace=wrap;html=1;" vertex="1" parent="1">
          <mxGeometry x="128" y="886" width="45" height="38" as="geometry" />
        </mxCell>
        <mxCell id="_J9scsHsa_5ye_fnWQHI-69" value="" style="rounded=0;whiteSpace=wrap;html=1;" vertex="1" parent="1">
          <mxGeometry x="173" y="886" width="45" height="38" as="geometry" />
        </mxCell>
        <mxCell id="_J9scsHsa_5ye_fnWQHI-71" value="" style="rounded=0;whiteSpace=wrap;html=1;fillColor=#60a917;strokeColor=#2D7600;fontColor=#ffffff;" vertex="1" parent="1">
          <mxGeometry x="218" y="886" width="45" height="38" as="geometry" />
        </mxCell>
        <mxCell id="_J9scsHsa_5ye_fnWQHI-72" value="" style="rounded=0;whiteSpace=wrap;html=1;fillColor=#60a917;strokeColor=#2D7600;fontColor=#ffffff;" vertex="1" parent="1">
          <mxGeometry x="260" y="886" width="45" height="38" as="geometry" />
        </mxCell>
        <mxCell id="_J9scsHsa_5ye_fnWQHI-73" value="" style="rounded=0;whiteSpace=wrap;html=1;fillColor=#60a917;strokeColor=#2D7600;fontColor=#ffffff;" vertex="1" parent="1">
          <mxGeometry x="305" y="886" width="45" height="38" as="geometry" />
        </mxCell>
        <mxCell id="_J9scsHsa_5ye_fnWQHI-74" value="" style="rounded=0;whiteSpace=wrap;html=1;fillColor=#60a917;fontColor=#ffffff;strokeColor=#2D7600;" vertex="1" parent="1">
          <mxGeometry x="350" y="886" width="45" height="38" as="geometry" />
        </mxCell>
        <mxCell id="_J9scsHsa_5ye_fnWQHI-75" value="" style="rounded=0;whiteSpace=wrap;html=1;" vertex="1" parent="1">
          <mxGeometry x="392" y="886" width="45" height="38" as="geometry" />
        </mxCell>
        <mxCell id="_J9scsHsa_5ye_fnWQHI-76" value="" style="rounded=0;whiteSpace=wrap;html=1;fillColor=#60a917;fontColor=#ffffff;strokeColor=#2D7600;" vertex="1" parent="1">
          <mxGeometry x="437" y="886" width="45" height="38" as="geometry" />
        </mxCell>
        <mxCell id="_J9scsHsa_5ye_fnWQHI-77" value="" style="rounded=0;whiteSpace=wrap;html=1;fillColor=#1ba1e2;fontColor=#ffffff;strokeColor=#006EAF;" vertex="1" parent="1">
          <mxGeometry x="482" y="886" width="45" height="38" as="geometry" />
        </mxCell>
        <mxCell id="_J9scsHsa_5ye_fnWQHI-78" value="" style="rounded=0;whiteSpace=wrap;html=1;fillColor=#d80073;fontColor=#ffffff;strokeColor=#A50040;" vertex="1" parent="1">
          <mxGeometry x="524" y="886" width="45" height="38" as="geometry" />
        </mxCell>
        <mxCell id="_J9scsHsa_5ye_fnWQHI-80" value="" style="rounded=0;whiteSpace=wrap;html=1;fillColor=#e3c800;fontColor=#000000;strokeColor=#B09500;" vertex="1" parent="1">
          <mxGeometry x="569" y="886" width="45" height="38" as="geometry" />
        </mxCell>
        <mxCell id="_J9scsHsa_5ye_fnWQHI-81" value="" style="rounded=0;whiteSpace=wrap;html=1;" vertex="1" parent="1">
          <mxGeometry x="614" y="886" width="45" height="38" as="geometry" />
        </mxCell>
        <mxCell id="_J9scsHsa_5ye_fnWQHI-82" value="" style="rounded=0;whiteSpace=wrap;html=1;" vertex="1" parent="1">
          <mxGeometry x="656" y="886" width="45" height="38" as="geometry" />
        </mxCell>
        <mxCell id="_J9scsHsa_5ye_fnWQHI-83" value="" style="rounded=0;whiteSpace=wrap;html=1;" vertex="1" parent="1">
          <mxGeometry x="701" y="886" width="45" height="38" as="geometry" />
        </mxCell>
        <mxCell id="_J9scsHsa_5ye_fnWQHI-84" value="" style="rounded=0;whiteSpace=wrap;html=1;fillColor=#60a917;strokeColor=#2D7600;fontColor=#ffffff;" vertex="1" parent="1">
          <mxGeometry x="260" y="962" width="45" height="38" as="geometry" />
        </mxCell>
        <mxCell id="_J9scsHsa_5ye_fnWQHI-85" value="" style="rounded=0;whiteSpace=wrap;html=1;fillColor=#60a917;strokeColor=#2D7600;fontColor=#ffffff;" vertex="1" parent="1">
          <mxGeometry x="302" y="962" width="45" height="38" as="geometry" />
        </mxCell>
        <mxCell id="_J9scsHsa_5ye_fnWQHI-86" value="" style="rounded=0;whiteSpace=wrap;html=1;fillColor=#60a917;strokeColor=#2D7600;fontColor=#ffffff;" vertex="1" parent="1">
          <mxGeometry x="347" y="962" width="45" height="38" as="geometry" />
        </mxCell>
        <mxCell id="_J9scsHsa_5ye_fnWQHI-87" value="" style="rounded=0;whiteSpace=wrap;html=1;" vertex="1" parent="1">
          <mxGeometry x="392" y="962" width="45" height="38" as="geometry" />
        </mxCell>
        <mxCell id="_J9scsHsa_5ye_fnWQHI-88" value="" style="rounded=0;whiteSpace=wrap;html=1;" vertex="1" parent="1">
          <mxGeometry x="434" y="962" width="45" height="38" as="geometry" />
        </mxCell>
        <mxCell id="_J9scsHsa_5ye_fnWQHI-89" value="" style="rounded=0;whiteSpace=wrap;html=1;fillColor=#60a917;fontColor=#ffffff;strokeColor=#2D7600;" vertex="1" parent="1">
          <mxGeometry x="479" y="962" width="45" height="38" as="geometry" />
        </mxCell>
        <mxCell id="_J9scsHsa_5ye_fnWQHI-90" value="" style="rounded=0;whiteSpace=wrap;html=1;fillColor=#1ba1e2;fontColor=#ffffff;strokeColor=#006EAF;" vertex="1" parent="1">
          <mxGeometry x="524" y="962" width="45" height="38" as="geometry" />
        </mxCell>
        <mxCell id="_J9scsHsa_5ye_fnWQHI-91" value="" style="rounded=0;whiteSpace=wrap;html=1;fillColor=#d80073;fontColor=#ffffff;strokeColor=#A50040;" vertex="1" parent="1">
          <mxGeometry x="566" y="962" width="45" height="38" as="geometry" />
        </mxCell>
        <mxCell id="_J9scsHsa_5ye_fnWQHI-92" value="" style="rounded=0;whiteSpace=wrap;html=1;fillColor=#fa6800;fontColor=#000000;strokeColor=#C73500;" vertex="1" parent="1">
          <mxGeometry x="611" y="962" width="45" height="38" as="geometry" />
        </mxCell>
        <mxCell id="_J9scsHsa_5ye_fnWQHI-93" value="" style="rounded=0;whiteSpace=wrap;html=1;" vertex="1" parent="1">
          <mxGeometry x="656" y="962" width="45" height="38" as="geometry" />
        </mxCell>
        <mxCell id="_J9scsHsa_5ye_fnWQHI-94" value="3" style="text;html=1;strokeColor=none;fillColor=none;align=center;verticalAlign=middle;whiteSpace=wrap;rounded=0;" vertex="1" parent="1">
          <mxGeometry x="211" y="846" width="60" height="30" as="geometry" />
        </mxCell>
        <mxCell id="_J9scsHsa_5ye_fnWQHI-95" value="11" style="text;html=1;strokeColor=none;fillColor=none;align=center;verticalAlign=middle;whiteSpace=wrap;rounded=0;" vertex="1" parent="1">
          <mxGeometry x="564" y="846" width="60" height="30" as="geometry" />
        </mxCell>
        <mxCell id="_J9scsHsa_5ye_fnWQHI-96" value="str1" style="text;html=1;strokeColor=none;fillColor=none;align=center;verticalAlign=middle;whiteSpace=wrap;rounded=0;" vertex="1" parent="1">
          <mxGeometry x="13" y="890" width="60" height="30" as="geometry" />
        </mxCell>
        <mxCell id="_J9scsHsa_5ye_fnWQHI-97" value="str2" style="text;html=1;strokeColor=none;fillColor=none;align=center;verticalAlign=middle;whiteSpace=wrap;rounded=0;" vertex="1" parent="1">
          <mxGeometry x="13" y="988" width="60" height="30" as="geometry" />
        </mxCell>
        <mxCell id="_J9scsHsa_5ye_fnWQHI-98" value="8" style="text;html=1;strokeColor=none;fillColor=none;align=center;verticalAlign=middle;whiteSpace=wrap;rounded=0;" vertex="1" parent="1">
          <mxGeometry x="430" y="846" width="60" height="30" as="geometry" />
        </mxCell>
        <mxCell id="_J9scsHsa_5ye_fnWQHI-99" value="3" style="text;html=1;strokeColor=none;fillColor=none;align=center;verticalAlign=middle;whiteSpace=wrap;rounded=0;" vertex="1" parent="1">
          <mxGeometry x="342.5" y="936" width="60" height="30" as="geometry" />
        </mxCell>
      </root>
    </mxGraphModel>
  </diagram>
</mxfile>
